<svg viewBox="0 0 96 96" xmlns="http://www.w3.org/2000/svg" xmlns:xlink="http://www.w3.org/1999/xlink" id="Icons_HourglassFull2" overflow="hidden"><path d="M73.3 13.994 76 13.994 76 8 20.03 8 20.03 14 22.63 14C23.73 25.093 30.13 41.285 39.421 47.981 30.126 54.681 23.63 70.868 22.63 81.962L20.03 81.962 20.03 87.962 76 87.962 76 81.962 73.3 81.962C72.3 70.868 65.8 54.677 56.509 47.981 65.805 41.279 72.3 25.087 73.3 13.994ZM67.27 13.994C66.4552 20.2752 64.5521 26.3663 61.646 31.994L34.34 31.994C31.4484 26.3561 29.5291 20.2707 28.663 13.994ZM42.926 52.843C43.4407 52.4695 43.8924 52.0161 44.264 51.5L46.03 54.1 46.03 67 31.077 81.953 28.657 81.953C29.718 72 35.607 58.116 42.926 52.843ZM67.271 81.953 64.983 81.953 50.03 67 50.03 54.02 51.708 51.556C52.0706 52.0483 52.5063 52.4823 53 52.843 60.322 58.116 66.21 72 67.271 81.953Z" stroke="none" stroke-width="1" stroke-linecap="butt" stroke-linejoin="miter" stroke-miterlimit="4" fill="#0047AB" fill-opacity="1"/></svg>